<svg xmlns="http://www.w3.org/2000/svg" _ngcontent-hillel_lms_server-c151="" width="24" height="24" viewBox="0 0 24 24" fill="none"><path _ngcontent-hillel_lms_server-c151="" d="M7.96777 7.83999L9.02977 8.64999C9.62377 7.91199 10.6138 7.42599 11.5858 7.42599C12.8998 7.42599 14.1958 8.30799 14.2318 9.81999C14.2678 11.476 12.4678 12.646 10.6498 12.664L10.7578 16.39H12.0358L12.1618 13.798C14.2498 13.42 15.6898 12.016 15.7078 9.83799C15.7258 7.38999 13.6918 6.07599 11.6218 6.07599C10.2898 6.07599 8.93977 6.59799 8.12977 7.64199L7.96777 7.83999ZM12.2338 18.982V17.308H10.6678V18.982H12.2338Z" fill="#004282"/><path _ngcontent-hillel_lms_server-c151="" fill-rule="evenodd" clip-rule="evenodd" d="M12 20.5C16.6944 20.5 20.5 16.6944 20.5 12C20.5 7.30558 16.6944 3.5 12 3.5C7.30558 3.5 3.5 7.30558 3.5 12C3.5 16.6944 7.30558 20.5 12 20.5ZM12 22C17.5228 22 22 17.5228 22 12C22 6.47715 17.5228 2 12 2C6.47715 2 2 6.47715 2 12C2 17.5228 6.47715 22 12 22Z" fill="#004282"/></svg>